<?xml version="1.0" standalone="no"?>
<!DOCTYPE svg PUBLIC "-//W3C//DTD SVG 20010904//EN"
 "http://www.w3.org/TR/2001/REC-SVG-20010904/DTD/svg10.dtd">
<svg version="1.0" xmlns="http://www.w3.org/2000/svg"
 width="1262.000000pt" height="418.000000pt" viewBox="0 0 1262.000000 418.000000"
 preserveAspectRatio="xMidYMid meet">

<g transform="translate(0.000000,418.000000) scale(0.100000,-0.100000)"
fill="#000000" stroke="none">
<path d="M5063 4165 c-21 -56 28 -3179 53 -3392 7 -52 8 -53 48 -64 65 -18
332 -26 891 -27 286 -1 770 -7 1075 -13 737 -14 1485 -9 1523 10 31 16 36 46
10 60 -38 20 -229 33 -803 56 -647 25 -2194 74 -2432 76 -80 1 -152 5 -159 10
-11 6 -17 143 -31 626 -40 1468 -55 2180 -50 2411 3 116 -7 112 290 111 136
-1 292 -4 346 -8 91 -5 99 -8 102 -27 4 -28 -21 -49 -138 -117 -53 -31 -105
-68 -116 -81 -24 -31 -29 -84 -47 -555 -35 -897 -44 -2024 -17 -2092 16 -40
40 -59 77 -59 31 0 35 3 43 38 6 20 15 388 21 817 16 1069 31 1724 41 1750 19
51 213 85 372 66 271 -33 469 -135 577 -297 87 -130 114 -263 87 -423 -20
-117 -59 -200 -165 -359 -94 -139 -184 -241 -247 -278 -23 -14 -59 -43 -79
-66 -34 -37 -37 -44 -33 -89 4 -38 17 -66 65 -136 67 -99 190 -304 373 -623
137 -239 236 -396 268 -423 26 -23 86 -38 125 -30 72 15 56 87 -55 240 -187
257 -285 419 -312 513 -18 65 -102 232 -181 359 -30 49 -55 97 -55 106 0 24
22 53 159 205 67 74 145 169 175 210 161 224 217 431 167 615 -57 206 -176
385 -321 482 -109 73 -284 145 -380 157 -81 11 -113 23 -145 56 l-28 29 24 9
c68 25 810 36 2504 36 1754 0 1841 -2 1914 -37 20 -9 57 -74 171 -299 80 -157
155 -303 167 -323 31 -48 37 -77 21 -97 -8 -10 -102 -41 -253 -83 -593 -164
-725 -208 -725 -241 0 -23 51 -40 278 -94 253 -61 300 -80 260 -107 -7 -4 -73
-33 -148 -63 -80 -33 -136 -61 -138 -70 -1 -9 30 -35 83 -69 97 -63 119 -84
130 -126 4 -16 11 -311 14 -655 7 -683 6 -682 62 -688 26 -3 27 -2 33 75 25
300 36 1243 15 1316 -5 21 -23 53 -40 71 -49 57 -43 67 79 121 59 27 123 59
144 71 89 56 74 65 -272 169 -102 30 -120 39 -103 56 6 6 127 46 270 89 385
116 400 120 415 133 8 7 36 66 63 132 26 66 94 233 151 370 56 138 108 270
115 294 10 32 23 51 51 70 40 28 56 57 40 73 -26 26 -413 30 -3349 35 -2907 5
-3063 4 -3070 -12z m6173 -106 c15 -15 13 -25 -20 -130 -78 -247 -159 -429
-181 -408 -15 16 -255 522 -250 527 17 17 143 30 282 28 126 -1 155 -4 169
-17z"/>
<path d="M4064 4030 c-119 -39 -244 -137 -319 -251 -134 -200 -200 -454 -251
-959 -21 -216 -30 -677 -15 -821 34 -324 131 -616 283 -844 62 -94 214 -251
279 -288 67 -39 175 -53 297 -39 166 19 222 49 294 155 53 78 108 202 108 245
0 48 -16 72 -48 72 -39 0 -69 -24 -83 -68 -36 -111 -104 -201 -174 -227 -34
-14 -70 -16 -182 -13 l-139 3 -51 38 c-111 81 -209 212 -297 399 -100 210
-130 337 -162 681 -31 344 -3 681 92 1102 33 144 65 236 128 370 95 197 161
266 292 299 130 34 182 18 289 -86 44 -43 86 -78 93 -78 22 0 72 57 72 81 0
57 -113 183 -198 221 -69 31 -225 35 -308 8z"/>
<path d="M12281 4036 c-16 -19 -28 -345 -41 -1106 -9 -525 -15 -659 -33 -676
-3 -3 -42 16 -88 42 -144 83 -178 94 -309 94 -188 0 -373 -35 -450 -86 -114
-76 -216 -333 -227 -574 -9 -192 24 -278 157 -411 83 -83 186 -149 268 -173
117 -34 312 -30 448 10 30 9 85 36 121 61 98 67 93 68 93 -32 0 -118 5 -125
85 -125 l65 0 0 1138 c-1 1190 -10 1711 -32 1797 -14 52 -35 68 -57 41z m-349
-1786 c126 -39 227 -136 270 -258 18 -51 20 -77 16 -252 -3 -189 -4 -197 -31
-249 -32 -63 -50 -87 -124 -165 -77 -80 -97 -87 -264 -87 -214 1 -308 29 -400
121 -180 180 -194 589 -25 786 44 51 131 98 221 118 93 21 246 15 337 -14z"/>
<path d="M2325 4013 c-16 -2 -88 -18 -159 -34 -251 -57 -252 -62 -243 -804 13
-955 46 -2021 67 -2193 10 -76 42 -165 70 -195 15 -16 28 -17 185 -7 409 25
532 56 672 170 130 106 237 262 268 391 19 84 19 320 0 458 -38 265 -125 465
-271 621 -40 44 -74 83 -74 86 0 4 40 48 89 99 153 158 193 238 213 421 22
202 -15 430 -96 599 -71 148 -156 237 -293 304 -120 60 -329 101 -428 84z
m244 -203 c121 -16 248 -101 326 -218 101 -153 80 -630 -35 -798 -17 -24 -76
-92 -130 -150 -54 -57 -102 -114 -105 -125 -8 -26 25 -63 107 -121 110 -78
255 -294 314 -469 27 -78 29 -95 28 -234 0 -224 -44 -410 -120 -510 -45 -58
-178 -158 -264 -198 l-65 -30 -229 2 c-193 1 -232 4 -247 17 -23 21 -27 87
-39 754 -19 1044 -32 1471 -56 1866 l-7 100 69 40 c100 59 121 65 246 73 62 5
118 9 123 9 6 1 43 -3 84 -8z"/>
<path d="M30 3899 c-34 -63 -35 -276 -4 -1384 20 -749 42 -1045 90 -1205 36
-122 130 -267 240 -369 204 -191 479 -233 757 -116 170 72 220 121 313 301
109 210 134 293 153 504 43 479 38 1650 -10 2075 -12 114 -25 155 -48 155 -15
0 -20 -11 -25 -57 -12 -113 -27 -688 -36 -1398 -7 -517 -14 -747 -24 -815 -35
-243 -80 -347 -215 -494 -135 -148 -197 -183 -352 -193 -86 -6 -161 13 -280
73 -89 44 -143 107 -216 251 -147 292 -155 355 -198 1593 -31 879 -53 1086
-117 1098 -9 2 -22 -7 -28 -19z"/>
<path d="M7870 2518 c-88 -31 -160 -81 -257 -180 -99 -99 -124 -132 -168 -219
-56 -109 -69 -169 -68 -304 1 -193 47 -379 117 -476 90 -123 289 -185 564
-177 128 4 161 9 252 36 129 39 157 39 220 5 46 -27 50 -27 66 -11 24 24 28
103 15 292 -7 86 -16 290 -21 452 -6 163 -15 316 -21 340 -14 55 -43 77 -95
72 -26 -2 -39 2 -42 12 -9 29 -58 72 -117 102 -94 49 -171 69 -280 74 -87 4
-109 2 -165 -18z m334 -126 c1 -37 12 -47 125 -117 36 -22 73 -54 83 -70 33
-57 72 -682 47 -764 -27 -89 -115 -132 -315 -151 -189 -19 -270 -10 -362 36
-102 52 -183 134 -230 232 l-37 77 0 155 c1 141 3 162 28 235 68 204 179 295
412 335 66 12 143 32 170 45 65 30 78 28 79 -13z"/>
<path d="M9300 2413 c-8 -3 -60 -23 -114 -44 -84 -33 -112 -39 -174 -39 l-75
0 7 -397 c11 -638 35 -1505 47 -1678 11 -167 21 -231 37 -247 28 -28 37 88 61
830 5 150 12 276 15 279 4 4 64 -13 134 -38 108 -37 138 -44 202 -43 124 1
255 65 391 192 247 231 306 538 159 821 -40 76 -118 166 -200 227 -119 90
-402 169 -490 137z m255 -138 c96 -26 178 -70 253 -141 127 -117 176 -258 155
-440 -14 -115 -27 -163 -64 -238 -40 -79 -81 -132 -140 -179 -156 -123 -329
-127 -551 -13 -100 51 -103 53 -109 92 -4 21 -9 203 -10 404 l-4 366 34 42
c41 52 72 69 181 98 101 27 174 30 255 9z"/>
<path d="M10395 789 c-531 -12 -832 -32 -860 -60 -16 -16 10 -31 76 -40 106
-16 1590 -23 2174 -10 744 17 853 26 826 69 -14 22 -77 32 -286 42 -228 11
-1408 11 -1930 -1z"/>
</g>
</svg>
